<svg xmlns="http://www.w3.org/2000/svg" width="720" height="540" viewBox="0 0 720 540" fill="none">
  <rect width="720" height="540" rx="36" fill="#F3F6FB"/>
  <rect x="54" y="54" width="612" height="432" rx="30" fill="#FFFFFF" stroke="#D6DFEF"/>
  <rect x="88" y="94" width="236" height="150" rx="26" fill="#F8FBFF" stroke="#D6DFEF"/>
  <rect x="350" y="94" width="282" height="150" rx="26" fill="#EEF4FF"/>
  <rect x="88" y="274" width="544" height="72" rx="22" fill="#FFFFFF" stroke="#D6DFEF"/>
  <rect x="88" y="364" width="544" height="72" rx="22" fill="#FFFFFF" stroke="#D6DFEF"/>
  <path d="M144 120H214L244 150V212H144V120Z" fill="#2F6FED" fill-opacity="0.12" stroke="#2F6FED" stroke-width="4"/>
  <path d="M214 120V150H244" stroke="#2F6FED" stroke-width="4"/>
  <rect x="378" y="126" width="188" height="20" rx="10" fill="#D9E4F6"/>
  <rect x="378" y="164" width="150" height="18" rx="9" fill="#D9E4F6"/>
  <rect x="124" y="300" width="220" height="18" rx="9" fill="#D9E4F6"/>
  <rect x="124" y="390" width="190" height="18" rx="9" fill="#D9E4F6"/>
  <rect x="516" y="292" width="92" height="36" rx="14" fill="#2F6FED"/>
  <rect x="516" y="382" width="92" height="36" rx="14" fill="#2F6FED"/>
</svg>
