<svg xmlns="http://www.w3.org/2000/svg" width="900" height="620" viewBox="0 0 900 620" fill="none">
  <rect width="900" height="620" rx="40" fill="#EEF4FF"/>
  <rect x="48" y="52" width="804" height="78" rx="24" fill="#FFFFFF" stroke="#D6DFEF"/>
  <rect x="78" y="79" width="180" height="24" rx="12" fill="#2F6FED" fill-opacity="0.15"/>
  <rect x="594" y="78" width="112" height="28" rx="14" fill="#2F6FED"/>
  <rect x="718" y="78" width="96" height="28" rx="14" fill="#FFFFFF" stroke="#D6DFEF"/>
  <rect x="48" y="154" width="514" height="420" rx="28" fill="#FFFFFF" stroke="#D6DFEF"/>
  <rect x="592" y="154" width="260" height="420" rx="28" fill="#FFFFFF" stroke="#D6DFEF"/>
  <rect x="80" y="192" width="210" height="104" rx="24" fill="#EEF4FF"/>
  <rect x="306" y="192" width="210" height="104" rx="24" fill="#EBFAF2"/>
  <rect x="80" y="324" width="436" height="26" rx="13" fill="#E9EEF8"/>
  <rect x="80" y="366" width="352" height="20" rx="10" fill="#E9EEF8"/>
  <rect x="80" y="406" width="392" height="20" rx="10" fill="#E9EEF8"/>
  <rect x="80" y="446" width="296" height="20" rx="10" fill="#E9EEF8"/>
  <rect x="80" y="492" width="178" height="42" rx="16" fill="#2F6FED"/>
  <rect x="624" y="190" width="196" height="68" rx="22" fill="#EEF4FF"/>
  <rect x="624" y="284" width="196" height="68" rx="22" fill="#FFF4EA"/>
  <rect x="624" y="378" width="196" height="68" rx="22" fill="#EBFAF2"/>
  <circle cx="725" cy="505" r="48" fill="#2F6FED" fill-opacity="0.12"/>
  <path d="M706 507L718 519L744 493" stroke="#2F6FED" stroke-width="16" stroke-linecap="round" stroke-linejoin="round"/>
</svg>
